<svg width="276" height="55" viewBox="0 0 276 55" fill="none" xmlns="http://www.w3.org/2000/svg">
<path d="M1 16.542C43.3387 39.5927 157.413 75.6447 275 35.4469" stroke="white" stroke-width="2" stroke-dasharray="4.2 4.2"/>
<path d="M36.2143 14.9731L34.926 14.5374L37.5711 6.71658L44.0581 8.91058L41.413 16.7314L40.1247 16.2957L42.3853 9.6116L38.4749 8.28905L36.2143 14.9731Z" fill="white"/>
<path d="M47.1357 9.90511L46.7912 11.0212C47.642 10.2902 48.6687 10.1103 49.8714 10.4815C50.9721 10.8212 51.7288 11.4621 52.1413 12.4043C52.564 13.3497 52.5787 14.4594 52.1855 15.7334C51.7923 17.0075 51.1567 17.9276 50.2787 18.4939C49.414 19.0531 48.4415 19.166 47.3611 18.8326C46.2297 18.4834 45.4818 17.7782 45.1172 16.7168L43.8386 20.86L42.5391 20.4589L45.9126 9.52766L47.1357 9.90511ZM49.3376 11.5056C48.5834 11.2728 47.9022 11.364 47.2941 11.7792C46.6993 12.1872 46.2541 12.8703 45.9584 13.8284C45.6627 14.7865 45.6491 15.6083 45.9175 16.294C46.1992 16.9726 46.7223 17.4298 47.4868 17.6657C48.2308 17.8954 48.9018 17.801 49.4997 17.3828C50.0977 16.9645 50.5429 16.2814 50.8354 15.3335C51.1311 14.3754 51.1431 13.5587 50.8716 12.8832C50.6134 12.2007 50.102 11.7415 49.3376 11.5056Z" fill="white"/>
<path d="M54.493 20.7507L52.8141 20.2787L55.0484 12.3308L56.3576 12.6989L54.5347 19.1835L54.5655 19.1922L59.9619 13.7121L61.6408 14.1841L59.4066 22.132L58.0973 21.7639L59.9202 15.2793L59.8894 15.2706L54.493 20.7507Z" fill="white"/>
<path d="M67.7729 16.7865C68.6643 16.1911 69.7163 16.041 70.9289 16.3362C72.1415 16.6314 72.9951 17.2289 73.4896 18.1288C73.9841 19.0286 74.0699 20.1418 73.747 21.4684C73.4165 22.8261 72.8223 23.8012 71.9645 24.3938C71.1066 24.9864 70.0662 25.1338 68.8433 24.8361C67.6203 24.5384 66.7525 23.9319 66.2398 23.0167C65.727 22.1014 65.6321 20.9805 65.9551 19.6539C66.2755 18.3377 66.8814 17.3819 67.7729 16.7865ZM72.2554 18.734C71.9485 18.0555 71.4064 17.6216 70.6291 17.4324C69.8518 17.2432 69.1658 17.3781 68.571 17.8371C67.9763 18.2961 67.5628 19.0024 67.3307 19.9558C67.091 20.9404 67.1259 21.7668 67.4353 22.4349C67.7576 23.0952 68.3229 23.5238 69.1313 23.7206C69.9086 23.9098 70.583 23.7776 71.1546 23.3239C71.7365 22.8727 72.1472 22.1548 72.3869 21.1702C72.619 20.2168 72.5752 19.4047 72.2554 18.734Z" fill="white"/>
<path d="M76.6821 26.4257L75.3532 26.1365L77.1086 18.0693L83.8001 19.5253L82.0446 27.5925L80.7157 27.3034L82.216 20.4087L78.1824 19.531L76.6821 26.4257Z" fill="white"/>
<path d="M92.9497 21.3342L91.3833 29.4403L90.048 29.1822L91.3867 22.2544L88.4962 21.6958L87.6941 25.2563C87.4238 26.4861 87.0256 27.338 86.4995 27.8121C85.9733 28.2862 85.396 28.4626 84.7676 28.3411C84.3801 28.2663 84.0718 28.1469 83.8427 27.9832L84.0522 26.8992C84.1742 26.9988 84.4027 27.081 84.7379 27.1458C85.0521 27.2065 85.3515 27.0905 85.6362 26.7979C85.9334 26.4968 86.1704 25.9451 86.3472 25.1427L87.4357 20.2687L92.9497 21.3342Z" fill="white"/>
<path d="M100.48 29.9174L100.303 30.9584C100.012 31.017 99.6979 31.0176 99.3614 30.9603C98.5938 30.8295 98.2676 30.3628 98.3826 29.5601C97.4682 30.2916 96.4116 30.5552 95.2128 30.3511C94.4137 30.215 93.8124 29.9016 93.4091 29.4109C93.0163 28.922 92.8807 28.32 93.0025 27.605C93.2497 26.1539 94.356 25.4713 96.3215 25.5572C96.4512 25.5576 96.6388 25.5679 96.8843 25.5881C97.817 25.6388 98.4002 25.6136 98.6338 25.5128C98.9043 25.3857 99.0744 25.1171 99.1443 24.707C99.2965 23.8133 98.7575 23.2616 97.5272 23.052C96.8963 22.9446 96.3955 22.9945 96.0247 23.2019C95.6558 23.3987 95.3896 23.7862 95.2262 24.3643L93.9171 24.1414C94.0867 23.2722 94.5125 22.6468 95.1942 22.2652C95.876 21.8835 96.7426 21.7823 97.7941 21.9614C98.9403 22.1566 99.7472 22.5645 100.215 23.1852C100.365 23.3839 100.459 23.6271 100.496 23.9148C100.534 24.2026 100.543 24.4367 100.523 24.6173C100.505 24.7873 100.466 25.0458 100.407 25.3928C100.339 25.7924 100.226 26.3952 100.067 27.2013C99.9076 28.0074 99.7942 28.6102 99.7261 29.0098C99.676 29.3042 99.6769 29.5208 99.729 29.6595C99.7935 29.7895 99.9308 29.8724 100.141 29.9083C100.225 29.9226 100.338 29.9256 100.48 29.9174ZM98.8568 26.3947C98.7497 26.4522 98.639 26.4983 98.5249 26.533C98.4108 26.5676 98.2669 26.5864 98.0933 26.5893C97.9302 26.594 97.8153 26.6015 97.7487 26.6118C97.6943 26.6133 97.554 26.6111 97.3278 26.605C97.1034 26.5884 96.986 26.5792 96.9754 26.5774C96.6423 26.564 96.4214 26.5588 96.3126 26.5619C96.2162 26.5563 96.0198 26.5662 95.7233 26.5914C95.4374 26.6185 95.2285 26.6694 95.0968 26.7444C94.965 26.8193 94.8251 26.9416 94.6772 27.1111C94.5416 27.272 94.4523 27.4786 94.4093 27.731C94.3377 28.1516 94.4232 28.507 94.666 28.7972C94.9192 29.0892 95.2982 29.2782 95.8029 29.3641C96.4443 29.4734 97.0497 29.3817 97.6189 29.0891C98.1881 28.7966 98.5166 28.3926 98.6043 27.8774L98.8568 26.3947Z" fill="white"/>
<path d="M110.243 25.3498L107.314 24.9191L106.288 31.9001L104.942 31.7022L105.969 24.7213L103.04 24.2907L103.215 23.1034L110.418 24.1625L110.243 25.3498Z" fill="white"/>
<path d="M118.18 30.8477C117.529 32.7011 116.219 33.5046 114.25 33.2582C113.044 33.1072 112.144 32.6128 111.55 31.7753C110.966 30.939 110.758 29.8541 110.925 28.5205C111.091 27.1975 111.574 26.1722 112.374 25.4447C113.187 24.7079 114.159 24.4104 115.292 24.5521C116.551 24.7098 117.429 25.2551 117.925 26.1879C118.433 27.1115 118.605 28.2242 118.443 29.526L118.419 29.7165L112.259 28.9454L112.231 29.0387C112.122 29.9066 112.264 30.6177 112.657 31.1722C113.05 31.7266 113.643 32.0535 114.437 32.1528C115.03 32.227 115.513 32.1477 115.886 31.915C116.27 31.6835 116.595 31.2727 116.863 30.6827L118.18 30.8477ZM117.159 28.4462C117.193 27.655 117.031 27.0166 116.673 26.531C116.316 26.0348 115.798 25.7443 115.121 25.6595C114.465 25.5774 113.892 25.7314 113.402 26.1216C112.913 26.5118 112.577 27.0879 112.396 27.85L117.159 28.4462Z" fill="white"/>
<path d="M131.169 34.7613L129.448 34.6037L126.823 30.2822L125.417 31.4227L125.162 34.2111L123.808 34.087L124.561 25.8654L125.915 25.9895L125.556 29.9091L129.675 26.3339L131.492 26.5003L127.881 29.4312L131.169 34.7613Z" fill="white"/>
<path d="M139.874 34.2868L139.802 35.3404C139.518 35.4278 139.205 35.4598 138.865 35.4364C138.088 35.3831 137.717 34.9514 137.751 34.1412C136.914 34.9605 135.889 35.3285 134.676 35.2452C133.867 35.1897 133.238 34.9381 132.787 34.4902C132.347 34.043 132.152 33.4576 132.202 32.734C132.303 31.2654 133.335 30.4756 135.3 30.3645C135.429 30.352 135.616 30.3435 135.863 30.339C136.796 30.2961 137.374 30.2128 137.596 30.089C137.852 29.9356 137.995 29.6513 138.023 29.2363C138.085 28.3318 137.494 27.8368 136.249 27.7513C135.61 27.7075 135.117 27.8073 134.769 28.0507C134.421 28.2835 134.195 28.6956 134.091 29.2872L132.766 29.1963C132.848 28.3145 133.209 27.6496 133.849 27.2017C134.489 26.7538 135.341 26.5664 136.405 26.6394C137.565 26.719 138.409 27.0442 138.936 27.615C139.106 27.7977 139.223 28.0303 139.289 28.3128C139.356 28.5953 139.388 28.8274 139.386 29.0091C139.385 29.1801 139.372 29.4411 139.348 29.7923C139.321 30.1967 139.268 30.8079 139.19 31.6258C139.113 32.4437 139.06 33.0549 139.032 33.4593C139.012 33.7573 139.035 33.9726 139.1 34.1055C139.178 34.2284 139.322 34.2971 139.535 34.3117C139.62 34.3176 139.733 34.3093 139.874 34.2868ZM137.906 30.9443C137.805 31.0122 137.7 31.0691 137.59 31.115C137.48 31.1609 137.338 31.194 137.166 31.2142C137.004 31.2352 136.89 31.2541 136.825 31.271C136.771 31.278 136.631 31.2898 136.406 31.3064C136.181 31.3124 136.063 31.315 136.052 31.3142C135.72 31.3342 135.499 31.3511 135.391 31.3651C135.295 31.3692 135.1 31.3986 134.808 31.4534C134.526 31.5089 134.323 31.5805 134.2 31.6682C134.076 31.756 133.949 31.8916 133.819 32.0751C133.7 32.2487 133.632 32.4632 133.614 32.7186C133.585 33.1443 133.706 33.4894 133.976 33.7539C134.258 34.0191 134.654 34.1692 135.164 34.2042C135.814 34.2488 136.407 34.097 136.944 33.749C137.481 33.4009 137.767 32.9662 137.803 32.4447L137.906 30.9443Z" fill="white"/>
<path d="M143.644 27.3132L143.594 28.4801C144.231 27.5574 145.179 27.1232 146.437 27.1774C147.587 27.227 148.482 27.6553 149.12 28.4622C149.768 29.2696 150.064 30.3393 150.006 31.6714C149.949 33.0035 149.567 34.0547 148.861 34.825C148.167 35.5851 147.254 35.9408 146.125 35.8921C144.942 35.8411 144.04 35.3484 143.418 34.4141L143.231 38.7461L141.872 38.6875L142.365 27.2581L143.644 27.3132ZM146.18 28.3034C145.391 28.2694 144.755 28.5302 144.272 29.0859C143.8 29.6314 143.543 30.4051 143.5 31.4068C143.456 32.4085 143.652 33.207 144.085 33.8022C144.53 34.3873 145.151 34.697 145.951 34.7315C146.729 34.765 147.354 34.5037 147.826 33.9476C148.299 33.3914 148.556 32.6178 148.599 31.6267C148.642 30.625 148.447 29.8318 148.013 29.2472C147.59 28.6525 146.979 28.3379 146.18 28.3034Z" fill="white"/>
<path d="M158.761 28.98L155.802 28.9238L155.668 35.9786L154.308 35.9528L154.442 28.898L151.483 28.8419L151.505 27.6421L158.784 27.7802L158.761 28.98Z" fill="white"/>
<path d="M159.948 28.743C160.67 27.951 161.655 27.5527 162.903 27.548C164.151 27.5434 165.123 27.9185 165.82 28.6732C166.516 29.428 166.866 30.488 166.871 31.8534C166.876 33.2507 166.534 34.34 165.843 35.1212C165.153 35.9024 164.178 36.2954 162.92 36.3C161.661 36.3047 160.673 35.9244 159.956 35.159C159.238 34.3937 158.877 33.3283 158.872 31.963C158.867 30.6084 159.225 29.535 159.948 28.743ZM164.767 29.5572C164.306 28.9722 163.676 28.6812 162.876 28.6842C162.076 28.6871 161.442 28.9828 160.975 29.5712C160.508 30.1596 160.276 30.9445 160.28 31.9258C160.283 32.9391 160.516 33.7329 160.976 34.3072C161.448 34.8708 162.099 35.1511 162.931 35.148C163.731 35.145 164.354 34.8547 164.8 34.2771C165.257 33.6994 165.483 32.9039 165.479 31.8905C165.476 30.9092 165.238 30.1314 164.767 29.5572Z" fill="white"/>
<path d="M175.179 24.4023C175.094 25.0773 174.849 25.6239 174.446 26.042C174.053 26.4491 173.521 26.6632 172.85 26.6842C172.199 26.7045 171.644 26.5191 171.183 26.128C170.733 25.7258 170.455 25.2009 170.35 24.5532L171.165 24.5277C171.437 25.3517 171.983 25.7508 172.804 25.7252C173.593 25.7005 174.113 25.2681 174.364 24.4278L175.179 24.4023ZM171.441 35.9167L169.698 35.9712L169.44 27.7192L170.8 27.6767L171.01 34.4094L171.042 34.4084L174.542 27.5598L176.285 27.5053L176.543 35.7573L175.183 35.7997L174.973 29.067L174.941 29.068L171.441 35.9167Z" fill="white"/>
<path d="M188.476 28.3642L188.566 29.7533L187.047 31.0692L188.723 32.2123L188.81 33.5695L186.26 31.809L186.171 30.4198L188.476 28.3642ZM185.379 28.5627L185.466 29.92L183.9 31.2549L185.624 32.3949L185.714 33.784L183.113 31.9787L183.026 30.6215L185.379 28.5627Z" fill="white"/>
<path d="M199.34 22.7859L196.065 28.6277L200.583 34.1118L198.766 34.2776L195.281 29.8883L192.536 34.8463L190.815 35.0034L194.281 28.7906L190.035 23.6353L191.835 23.4709L195.086 27.5764L197.635 22.9415L199.34 22.7859Z" fill="white"/>
<path d="M207.982 32.1484L208.105 33.1972C207.842 33.3354 207.541 33.4243 207.202 33.4639C206.429 33.5544 205.984 33.1982 205.869 32.3955C205.197 33.3547 204.257 33.9049 203.049 34.0462C202.244 34.1404 201.579 34.0087 201.054 33.6513C200.54 33.2926 200.24 32.7531 200.156 32.0327C199.985 30.5706 200.855 29.6044 202.765 29.134C202.89 29.0979 203.073 29.0551 203.314 29.0054C204.223 28.7916 204.776 28.6035 204.971 28.441C205.195 28.243 205.283 27.9374 205.235 27.5242C205.129 26.6237 204.457 26.2459 203.217 26.3909C202.582 26.4652 202.115 26.654 201.818 26.9573C201.519 27.25 201.373 27.6967 201.378 28.2974L200.059 28.4516C199.978 27.5698 200.21 26.8499 200.757 26.292C201.304 25.734 202.107 25.3931 203.167 25.2692C204.322 25.1341 205.211 25.2986 205.834 25.7627C206.034 25.9111 206.193 26.1181 206.31 26.3837C206.426 26.6492 206.501 26.8714 206.532 27.0503C206.563 27.2185 206.599 27.4775 206.639 27.8271C206.686 28.2297 206.747 28.8401 206.821 29.6584C206.896 30.4766 206.956 31.087 207.003 31.4896C207.038 31.7863 207.1 31.9938 207.189 32.1123C207.287 32.2189 207.442 32.2598 207.654 32.2351C207.739 32.2252 207.848 32.1963 207.982 32.1484ZM205.434 29.2246C205.347 29.3099 205.254 29.3853 205.154 29.4506C205.054 29.516 204.921 29.5745 204.756 29.6261C204.6 29.6765 204.492 29.716 204.431 29.7446C204.379 29.7614 204.244 29.7987 204.025 29.8565C203.805 29.9037 203.69 29.9279 203.68 29.9291C203.356 30.0099 203.143 30.0671 203.039 30.1007C202.945 30.1224 202.759 30.1871 202.482 30.2947C202.215 30.4011 202.029 30.5088 201.924 30.6178C201.818 30.7267 201.718 30.8834 201.624 31.0877C201.539 31.2802 201.512 31.5036 201.541 31.7579C201.591 32.1816 201.773 32.4986 202.088 32.7089C202.413 32.9178 202.83 32.9926 203.338 32.9331C203.984 32.8576 204.54 32.5993 205.003 32.1585C205.467 31.7176 205.669 31.2376 205.608 30.7185L205.434 29.2246Z" fill="white"/>
<path d="M215.589 23.8526L216.76 32.025L215.414 32.218L214.413 25.2334L211.499 25.6513L211.905 29.2782C212.052 30.5287 211.955 31.464 211.613 32.0842C211.271 32.7043 210.783 33.0598 210.149 33.1507C209.759 33.2067 209.428 33.1948 209.158 33.115L209.001 32.0221C209.149 32.0764 209.392 32.0793 209.73 32.0308C210.047 31.9854 210.292 31.7779 210.465 31.4082C210.648 31.0265 210.691 30.4276 210.596 29.6115L210.03 24.6496L215.589 23.8526Z" fill="white"/>
<path d="M219.186 31.6607L217.798 23.5223L221.567 22.8792C222.103 22.7877 222.569 22.757 222.964 22.787C223.356 22.8066 223.721 22.9446 224.057 23.2011C224.393 23.4576 224.605 23.8487 224.695 24.3744C224.832 25.1735 224.532 25.8253 223.795 26.3296L223.798 26.3454C224.298 26.3575 224.715 26.519 225.049 26.8299C225.382 27.1302 225.594 27.5485 225.685 28.0848C225.804 28.7787 225.67 29.3912 225.285 29.9223C224.899 30.4534 224.344 30.7808 223.618 30.9046L219.186 31.6607ZM221.985 26.184C222.542 26.0889 222.921 25.9323 223.122 25.7141C223.332 25.4835 223.406 25.1895 223.345 24.832C223.284 24.4745 223.123 24.2314 222.863 24.1026C222.603 23.9738 222.189 23.9579 221.622 24.0548L219.303 24.4503L219.666 26.5796L221.985 26.184ZM219.86 27.7152L220.299 30.286L223.169 29.7963C223.59 29.7245 223.894 29.5427 224.083 29.2509C224.281 28.9573 224.347 28.6107 224.278 28.2111C224.14 27.4015 223.546 27.0864 222.494 27.2658L219.86 27.7152Z" fill="white"/>
<path d="M235.599 27.5302L235.805 28.566C235.554 28.7246 235.261 28.8372 234.926 28.9037C234.163 29.0555 233.691 28.7359 233.512 27.9449C232.919 28.9546 232.026 29.5779 230.833 29.8149C230.038 29.9729 229.365 29.8947 228.813 29.5802C228.271 29.2637 227.93 28.7497 227.789 28.0382C227.502 26.5945 228.292 25.562 230.158 24.941C230.28 24.8951 230.459 24.8378 230.695 24.7691C231.585 24.4836 232.121 24.252 232.303 24.0745C232.51 23.8592 232.573 23.5476 232.492 23.1396C232.315 22.2503 231.615 21.9273 230.391 22.1705C229.763 22.2953 229.313 22.5206 229.041 22.8466C228.766 23.1622 228.656 23.6191 228.71 24.2175L227.407 24.4763C227.256 23.6038 227.43 22.8676 227.931 22.2679C228.432 21.6681 229.205 21.2643 230.251 21.0564C231.392 20.8298 232.291 20.923 232.949 21.3359C233.161 21.468 233.335 21.6617 233.473 21.9171C233.61 22.1724 233.702 22.388 233.748 22.5638C233.792 22.7291 233.848 22.9844 233.917 23.3297C233.996 23.7272 234.105 24.3309 234.244 25.1406C234.383 25.9503 234.492 26.554 234.571 26.9516C234.629 27.2445 234.707 27.4465 234.806 27.5575C234.912 27.6559 235.07 27.6843 235.279 27.6428C235.363 27.6261 235.47 27.5886 235.599 27.5302ZM232.826 24.8188C232.746 24.9107 232.659 24.9932 232.565 25.0663C232.471 25.1394 232.343 25.2083 232.182 25.273C232.031 25.3355 231.927 25.3835 231.868 25.4169C231.818 25.4378 231.686 25.4857 231.472 25.5608C231.257 25.6254 231.144 25.6587 231.133 25.6608C230.817 25.7671 230.609 25.8411 230.509 25.8828C230.417 25.9119 230.237 25.9912 229.969 26.1206C229.711 26.2479 229.534 26.37 229.438 26.487C229.342 26.6041 229.255 26.7682 229.177 26.9794C229.108 27.178 229.098 27.4029 229.148 27.654C229.231 28.0725 229.438 28.3739 229.768 28.5584C230.109 28.7409 230.53 28.7822 231.032 28.6824C231.671 28.5556 232.203 28.254 232.631 27.7775C233.058 27.3011 233.221 26.8066 233.119 26.2939L232.826 24.8188Z" fill="white"/>
<path d="M239.037 20.8548L241.892 22.246L242.191 23.5728L240.189 25.9748L239.891 24.648L241.216 23.1033L239.346 22.2285L239.037 20.8548ZM236 21.5711L238.798 22.9259L239.097 24.2527L237.138 26.6286L236.84 25.3018L238.137 23.7798L236.302 22.9135L236 21.5711Z" fill="white"/>
</svg>
