<svg width="10" height="10" viewBox="0 0 10 10" fill="none" xmlns="http://www.w3.org/2000/svg">
<path d="M9.1665 4.99984C9.056 4.99984 8.95002 5.04374 8.87188 5.12188C8.79374 5.20002 8.74984 5.306 8.74984 5.4165V8.33317C8.74984 8.56338 8.56338 8.74984 8.33317 8.74984H1.6665C1.4363 8.74984 1.24984 8.56338 1.24984 8.33317V1.6665C1.24984 1.4363 1.4363 1.24984 1.6665 1.24984H4.58317C4.69368 1.24984 4.79966 1.20594 4.8778 1.1278C4.95594 1.04966 4.99984 0.943677 4.99984 0.833171C4.99984 0.722664 4.95594 0.616683 4.8778 0.538543C4.79966 0.460403 4.69368 0.416504 4.58317 0.416504H1.6665C0.976191 0.416504 0.416504 0.976191 0.416504 1.6665V8.33317C0.416504 9.02348 0.976191 9.58317 1.6665 9.58317H8.33317C9.02348 9.58317 9.58317 9.02348 9.58317 8.33317V5.4165C9.58317 5.306 9.53927 5.20002 9.46113 5.12188C9.38299 5.04374 9.27701 4.99984 9.1665 4.99984Z" fill="#333333"/>
</svg>
